<svg xmlns="http://www.w3.org/2000/svg" xmlns:xlink="http://www.w3.org/1999/xlink" width="114px" height="114px" viewBox="0 0 114 114" version="1.1">
    <title>Group</title>
    <g id="Page-1" stroke="none" stroke-width="1" fill="none" fill-rule="evenodd">
        <g id="Group">
            <g id="f-logotype" transform="translate(3.855525, 34.210934)" fill="#000000" fill-rule="nonzero">
                <path d="M62.1447124,24.6431689 C62.1652446,24.3356215 60.8202754,24.918263 59.8795401,25.7879195 C58.2991047,27.2227585 55.777934,28.0054224 53.9340928,28.2228141 C47.5370925,28.9184854 52.4289162,17.3526013 55.9284517,8.26509914 C58.4872518,1.61251849 54.6490516,1.82992814 51.0366279,4.65619065 C47.1607984,7.69985383 37.7158156,18.9614255 34.8559802,21.7442007 C32.8992507,23.6573194 31.920886,22.9181517 33.012139,19.7005932 C34.2162802,16.0916577 39.3715098,3.83004837 36.5493038,3.04738982 C28.7600153,0.873341868 5.20402968,23.222536 0.575612745,36.6581323 C-0.628527576,40.1365788 -0.16212597,45.1792339 4.08999683,45.6140172 C-0.16212597,33.3523719 23.2661209,10.7869863 29.2868271,7.52592251 C33.7270978,5.09099198 33.2755449,8.17814247 32.2595507,10.9609266 C31.1306683,14.0915465 28.007427,22.7442564 26.9914328,27.2227585 C25.7120328,32.8753015 28.3460917,32.7449024 31.8079977,28.7880864 C34.103392,26.1792066 45.7685101,12.1349316 48.8917514,9.65649572 C51.4881809,7.56940984 52.5041751,7.83029782 51.1118868,11.395737 C50.2464103,13.6132668 45.580363,23.7878083 47.0479101,28.0054224 C48.4401984,31.9621486 55.4768987,30.2229254 59.7666518,27.4401502 C60.6321283,26.8749678 62.1232184,24.9507163 62.1447124,24.6431689 Z" id="Shape"/>
                <path d="M107.402506,16.4985624 C107.30038,16.1417704 97.2908802,25.2322211 94.6594746,26.9290667 C93.0792299,27.9480778 90.8734746,29.2997667 86.6724746,29.4449667 C81.8464746,29.6384667 77.8114746,24.7033667 76.9374746,21.1714667 C76.6464746,20.0102667 76.8964746,19.9134667 77.9774746,20.1070667 C84.8414746,21.2682667 96.4894746,20.3005667 98.9024746,10.9626667 C101.523475,0.802266732 91.9964746,-1.90719327 84.2594746,1.23769673 C69.3664746,7.23717673 57.8014746,23.8325667 54.2654746,31.3318667 C51.1044746,38.0570667 53.3504746,42.0728667 56.5954746,42.9921667 C53.1004746,31.6221667 74.4414746,8.44676673 84.1344746,4.18907673 C91.7884746,0.802266732 95.8654746,4.38259673 94.7844746,10.0433667 C93.1204746,18.8974667 79.6004746,19.8651667 74.7324746,17.2524667 C72.9024746,16.2847667 71.2804746,15.8977667 72.4034746,19.8167667 C74.3584746,26.5903667 79.3084746,31.7673667 86.2974746,31.3802667 C90.4574746,31.1867667 93.4524746,29.6868667 95.1164746,28.5256667 C95.3373041,28.3652504 104.725221,23.1355788 108.311168,20.1070667 C110.132654,18.5687312 107.436906,16.6187472 107.402506,16.4985624 Z" id="Shape"/>
            </g>
            <circle id="Oval" stroke="#000000" stroke-width="3" cx="57" cy="57" r="55.5"/>
        </g>
    </g>
</svg>