<svg width="233" height="83" viewBox="0 0 233 83" fill="none" xmlns="http://www.w3.org/2000/svg">
    <path d="M48.3067 81.9999H47.2177V76.1919L44.2257 81.9999H43.0927L40.1007 76.1809V81.9999H39.0117V74.7839H40.5517L43.6647 80.7679L46.7777 74.7839H48.3067V81.9999Z" fill="black"/>
    <path d="M56.241 82.1319C55.4123 82.1319 54.6863 81.9815 54.063 81.6809C53.4397 81.3802 52.9593 80.9549 52.622 80.4049C52.2847 79.8549 52.116 79.2095 52.116 78.4689V78.3259C52.116 77.5852 52.2847 76.9399 52.622 76.3899C52.9593 75.8325 53.4397 75.4035 54.063 75.1029C54.6863 74.8022 55.4123 74.6519 56.241 74.6519C57.0697 74.6519 57.792 74.8022 58.408 75.1029C59.0313 75.4035 59.5117 75.8325 59.849 76.3899C60.1863 76.9399 60.355 77.5852 60.355 78.3259V78.4689C60.355 79.2095 60.1863 79.8549 59.849 80.4049C59.5117 80.9549 59.0313 81.3802 58.408 81.6809C57.792 81.9815 57.0697 82.1319 56.241 82.1319ZM56.241 81.1089C57.187 81.1089 57.924 80.8779 58.452 80.4159C58.98 79.9539 59.244 79.3122 59.244 78.4909V78.3149C59.244 77.4862 58.98 76.8409 58.452 76.3789C57.924 75.9095 57.187 75.6749 56.241 75.6749C55.295 75.6749 54.5543 75.9095 54.019 76.3789C53.491 76.8409 53.227 77.4862 53.227 78.3149V78.4909C53.227 79.3122 53.491 79.9539 54.019 80.4159C54.5543 80.8779 55.295 81.1089 56.241 81.1089Z" fill="black"/>
    <path d="M67.4385 82.1319C66.2725 82.1319 65.3888 81.9302 64.7875 81.5269C64.1935 81.1162 63.8965 80.5185 63.8965 79.7339V79.6239H64.9965V79.7339C64.9965 80.6725 65.8288 81.1419 67.4935 81.1419C68.2341 81.1419 68.7988 81.0502 69.1875 80.8669C69.5761 80.6835 69.7705 80.4122 69.7705 80.0529V79.9649C69.7705 79.6569 69.6458 79.4259 69.3965 79.2719C69.1545 79.1179 68.7218 79.0005 68.0985 78.9199L66.4595 78.6999C65.6601 78.5972 65.0588 78.3919 64.6555 78.0839C64.2595 77.7685 64.0615 77.3469 64.0615 76.8189V76.7089C64.0615 76.0635 64.3475 75.5612 64.9195 75.2019C65.4915 74.8352 66.2981 74.6519 67.3395 74.6519C68.4468 74.6519 69.2865 74.8499 69.8585 75.2459C70.4378 75.6419 70.7275 76.2175 70.7275 76.9729V77.0829H69.6385V76.9729C69.6385 76.0855 68.8721 75.6419 67.3395 75.6419C66.6355 75.6419 66.0965 75.7335 65.7225 75.9169C65.3558 76.0929 65.1725 76.3495 65.1725 76.6869V76.7749C65.1725 77.0462 65.2898 77.2552 65.5245 77.4019C65.7591 77.5485 66.1515 77.6585 66.7015 77.7319L68.3515 77.9409C69.2241 78.0509 69.8621 78.2635 70.2655 78.5789C70.6761 78.8942 70.8815 79.3415 70.8815 79.9209V80.0309C70.8815 80.6982 70.5845 81.2152 69.9905 81.5819C69.3965 81.9485 68.5458 82.1319 67.4385 82.1319Z" fill="black"/>
    <path d="M78.6088 82.1319C77.7655 82.1319 77.0285 81.9852 76.3978 81.6919C75.7671 81.3912 75.2795 80.9659 74.9348 80.4159C74.5975 79.8659 74.4288 79.2242 74.4288 78.4909V78.3039C74.4288 77.5705 74.5975 76.9289 74.9348 76.3789C75.2795 75.8289 75.7671 75.4035 76.3978 75.1029C77.0285 74.8022 77.7655 74.6519 78.6088 74.6519C79.3715 74.6519 80.0571 74.7802 80.6658 75.0369C81.2818 75.2935 81.7621 75.6492 82.1068 76.1039C82.4588 76.5512 82.6348 77.0535 82.6348 77.6109V77.7099H81.5238V77.6109C81.5238 77.2442 81.3991 76.9142 81.1498 76.6209C80.9005 76.3275 80.5521 76.0965 80.1048 75.9279C79.6648 75.7592 79.1661 75.6749 78.6088 75.6749C77.6261 75.6749 76.8671 75.9022 76.3318 76.3569C75.8038 76.8115 75.5398 77.4569 75.5398 78.2929V78.5019C75.5398 79.3379 75.8038 79.9832 76.3318 80.4379C76.8671 80.8852 77.6261 81.1089 78.6088 81.1089C79.1735 81.1089 79.6758 81.0282 80.1158 80.8669C80.5631 80.6982 80.9078 80.4672 81.1498 80.1739C81.3991 79.8805 81.5238 79.5505 81.5238 79.1839V79.0739H82.6348V79.1839C82.6348 79.7412 82.4588 80.2435 82.1068 80.6909C81.7621 81.1382 81.2818 81.4902 80.6658 81.7469C80.0571 82.0035 79.3715 82.1319 78.6088 82.1319Z" fill="black"/>
    <path d="M90.2581 82.1319C89.4294 82.1319 88.7034 81.9815 88.0801 81.6809C87.4567 81.3802 86.9764 80.9549 86.6391 80.4049C86.3017 79.8549 86.1331 79.2095 86.1331 78.4689V78.3259C86.1331 77.5852 86.3017 76.9399 86.6391 76.3899C86.9764 75.8325 87.4567 75.4035 88.0801 75.1029C88.7034 74.8022 89.4294 74.6519 90.2581 74.6519C91.0867 74.6519 91.8091 74.8022 92.4251 75.1029C93.0484 75.4035 93.5287 75.8325 93.8661 76.3899C94.2034 76.9399 94.3721 77.5852 94.3721 78.3259V78.4689C94.3721 79.2095 94.2034 79.8549 93.8661 80.4049C93.5287 80.9549 93.0484 81.3802 92.4251 81.6809C91.8091 81.9815 91.0867 82.1319 90.2581 82.1319ZM90.2581 81.1089C91.2041 81.1089 91.9411 80.8779 92.4691 80.4159C92.9971 79.9539 93.2611 79.3122 93.2611 78.4909V78.3149C93.2611 77.4862 92.9971 76.8409 92.4691 76.3789C91.9411 75.9095 91.2041 75.6749 90.2581 75.6749C89.3121 75.6749 88.5714 75.9095 88.0361 76.3789C87.5081 76.8409 87.2441 77.4862 87.2441 78.3149V78.4909C87.2441 79.3122 87.5081 79.9539 88.0361 80.4159C88.5714 80.8779 89.3121 81.1089 90.2581 81.1089Z" fill="black"/>
    <path d="M109.441 74.7839V74.9489L106.768 81.9999H105.437L103.204 76.1149L100.971 81.9999H99.6399L96.9559 74.9489V74.7839H98.0779L100.311 80.8119L102.61 74.7839H103.798L106.097 80.8009L108.319 74.7839H109.441Z" fill="black"/>
    <path d="M123.725 79.1949C123.439 79.1949 123.168 79.1729 122.911 79.1289C122.655 79.0775 122.343 79.0042 121.976 78.9089C121.632 78.8209 121.342 78.7549 121.107 78.7109C120.873 78.6669 120.627 78.6449 120.37 78.6449C119.842 78.6449 119.289 78.7732 118.709 79.0299V78.0399C119.274 77.7832 119.831 77.6549 120.381 77.6549C120.638 77.6549 120.884 77.6805 121.118 77.7319C121.36 77.7759 121.646 77.8419 121.976 77.9299C122.328 78.0252 122.636 78.0985 122.9 78.1499C123.164 78.1939 123.443 78.2159 123.736 78.2159C124.308 78.2159 124.884 78.1022 125.463 77.8749V78.8539C124.869 79.0812 124.29 79.1949 123.725 79.1949Z" fill="black"/>
    <path d="M140.619 74.7839C141.426 74.7839 142.064 74.9782 142.533 75.3669C143.003 75.7482 143.237 76.2652 143.237 76.9179V77.0499C143.237 77.7025 143.003 78.2232 142.533 78.6119C142.064 78.9932 141.426 79.1839 140.619 79.1839H137.275V81.9999H136.175V74.7839H140.619ZM140.597 78.2049C141.081 78.2049 141.455 78.1059 141.719 77.9079C141.991 77.7025 142.126 77.4165 142.126 77.0499V76.9179C142.126 76.5512 141.991 76.2689 141.719 76.0709C141.455 75.8655 141.081 75.7629 140.597 75.7629H137.275V78.2049H140.597Z" fill="black"/>
    <path d="M153.184 81.8349V81.9999H152.062L151.204 80.1739H147.134L146.276 81.9999H145.154V81.8349L148.564 74.7839H149.774L153.184 81.8349ZM150.731 79.1839L149.169 75.8729L147.607 79.1839H150.731Z" fill="black"/>
    <path d="M163.563 77.0939C163.563 77.6952 163.346 78.1829 162.914 78.5569C162.488 78.9309 161.902 79.1362 161.154 79.1729L163.53 81.8349V81.9999H162.276L159.735 79.1729H157.601V81.9999H156.501V74.7839H160.945C161.759 74.7839 162.397 74.9782 162.859 75.3669C163.328 75.7482 163.563 76.2762 163.563 76.9509V77.0939ZM162.452 76.9179C162.452 76.5512 162.316 76.2689 162.045 76.0709C161.781 75.8655 161.407 75.7629 160.923 75.7629H157.601V78.2049H160.923C161.407 78.2049 161.781 78.1059 162.045 77.9079C162.316 77.7025 162.452 77.4165 162.452 77.0499V76.9179Z" fill="black"/>
    <path d="M168.63 74.7839V81.9999H167.541V74.7839H168.63Z" fill="black"/>
    <path d="M176.108 82.1319C174.942 82.1319 174.058 81.9302 173.457 81.5269C172.863 81.1162 172.566 80.5185 172.566 79.7339V79.6239H173.666V79.7339C173.666 80.6725 174.498 81.1419 176.163 81.1419C176.904 81.1419 177.468 81.0502 177.857 80.8669C178.246 80.6835 178.44 80.4122 178.44 80.0529V79.9649C178.44 79.6569 178.315 79.4259 178.066 79.2719C177.824 79.1179 177.391 79.0005 176.768 78.9199L175.129 78.6999C174.33 78.5972 173.728 78.3919 173.325 78.0839C172.929 77.7685 172.731 77.3469 172.731 76.8189V76.7089C172.731 76.0635 173.017 75.5612 173.589 75.2019C174.161 74.8352 174.968 74.6519 176.009 74.6519C177.116 74.6519 177.956 74.8499 178.528 75.2459C179.107 75.6419 179.397 76.2175 179.397 76.9729V77.0829H178.308V76.9729C178.308 76.0855 177.542 75.6419 176.009 75.6419C175.305 75.6419 174.766 75.7335 174.392 75.9169C174.025 76.0929 173.842 76.3495 173.842 76.6869V76.7749C173.842 77.0462 173.959 77.2552 174.194 77.4019C174.429 77.5485 174.821 77.6585 175.371 77.7319L177.021 77.9409C177.894 78.0509 178.532 78.2635 178.935 78.5789C179.346 78.8942 179.551 79.3415 179.551 79.9209V80.0309C179.551 80.6982 179.254 81.2152 178.66 81.5819C178.066 81.9485 177.215 82.1319 176.108 82.1319Z" fill="black"/>
    <path d="M79.9725 45.499C78.9381 44.461 78.7657 44.1151 79.8001 42.8349C81.1793 41.1396 82.1102 39.5827 80.4897 39.6519C78.283 39.7211 77.2831 41.105 77.3521 43.3885C77.3521 43.5961 77.49 44.2189 77.1107 44.7378C74.2145 48.4744 69.4219 53.8371 67.4222 52.7991C66.2499 52.211 67.698 48.8204 69.284 46.9175C70.077 45.9487 69.9736 45.672 68.56 45.7412C67.0429 45.8104 66.2154 45.7412 65.181 47.1251C64.9397 47.4365 64.8362 47.3673 64.5604 47.1597C63.1123 46.1563 59.2162 46.0526 56.8026 49.7199C56.182 50.6541 55.5959 51.3114 54.7339 52.0034C53.2858 53.1451 50.9757 53.7679 49.2862 53.9409C43.4248 54.4944 47.9071 45.2914 51.1136 38.0604C53.4582 32.7669 49.9413 32.9399 46.6313 35.1888C43.08 37.6107 34.4258 46.5715 31.8054 48.7858C30.0125 50.3081 29.116 49.7199 30.1159 47.1597C31.2192 44.2881 35.9429 34.5314 33.3569 33.9087C26.2198 32.1788 4.63595 49.9621 0.395042 60.6529C-0.708285 63.4207 0.464 66.7767 4.36012 67.1227C0.464 57.3661 21.1859 40.0671 26.7025 37.4723C30.771 35.5348 30.3573 37.9912 29.4263 40.2055C28.392 42.6966 25.5302 49.5815 24.5993 53.1451C23.427 57.6429 25.8405 57.5391 29.0126 54.3907C31.1158 52.3148 41.8043 41.1396 44.666 39.1676C47.0451 37.5069 47.976 37.7145 46.7003 40.5515C45.9073 42.316 41.6319 50.4119 42.9766 53.7679C44.2523 56.9163 50.6999 55.5324 54.6305 53.3181C55.4235 52.8683 55.6303 52.7646 55.8027 53.5257C56.5613 56.7779 61.2504 54.4944 63.0088 52.7645C63.3881 52.4186 63.4915 52.4186 63.5605 52.7645C64.457 57.8504 70.8011 54.529 77.559 45.9142C78.0417 45.326 78.3175 45.4298 78.6623 45.9488C79.9035 47.7824 77.0418 49.3739 74.0766 54.0793C72.4906 56.5703 72.2147 60.4107 76.9383 60.5145C75.904 59.3035 75.4213 56.1205 80.2483 50.3427C82.455 47.6441 81.4551 46.9867 79.9725 45.499ZM60.0436 52.5224C58.8369 52.211 59.3885 50.0659 61.078 48.682C62.5261 47.5057 63.9743 47.7479 63.9743 49.201C64.0087 50.7233 61.1814 52.8337 60.0436 52.5224Z" fill="black"/>
    <path d="M123.519 37.2986C121.347 35.2227 111.21 40.5162 107.693 50.4458C107.383 51.3799 107.038 51.5529 106.418 51.8989C103.142 53.7326 98.1426 54.9089 98.0736 51.7951C98.0736 51.3799 98.1771 51.1724 98.8667 50.861C102.521 49.2349 102.452 46.7438 101.418 46.0865C99.7976 45.0485 96.1428 46.1211 94.9705 50.7572C94.7981 51.4145 94.5568 51.7259 94.1086 52.0719C91.8674 53.9056 86.868 55.0473 86.6611 51.7259C86.5577 50.2728 87.4196 48.4045 88.6954 47.8164C89.3505 47.5396 90.2124 47.6779 89.9711 48.4045C88.9367 48.7159 89.0746 50.0652 90.0745 49.8576C91.3158 49.5808 91.9364 47.7125 90.9365 46.8476C89.9021 45.948 87.4886 46.0518 85.6612 47.5396C82.2133 50.342 82.3168 55.2895 87.5231 55.1857C90.0056 55.1511 92.3501 54.2862 93.7982 53.525C94.7637 53.0061 94.8671 53.1444 95.1774 53.5942C97.1427 56.4658 102.349 54.8051 106.004 53.1098C106.624 52.8331 107.176 52.6947 107.245 53.2482C107.555 55.8085 109.348 57.3654 110.176 57.5384C109.417 55.8085 109.452 51.2416 111.417 50.169C118.382 46.5362 125.864 39.5128 123.519 37.2986ZM98.2805 49.65C98.7287 47.6434 100.142 46.294 100.832 46.986C101.487 47.6434 100.349 49.3386 98.7287 49.9614C98.3839 50.0998 98.1771 50.0998 98.2805 49.65ZM112.313 48.5775C111.693 48.9581 111.348 49.0619 111.796 48.2315C114.037 44.1144 117.623 40.4816 119.451 39.4436C121.519 38.2673 122.209 38.8555 121.933 39.8934C120.933 42.6267 115.244 46.7438 112.313 48.5775Z" fill="black"/>
    <path d="M196.58 39.998C195.132 40.3093 194.442 41.7624 194.511 43.3885C194.511 43.9421 194.477 44.3573 194.201 44.7725C191.443 49.0626 185.616 53.5258 182.547 53.8717C181.34 54.0101 180.892 52.7646 181.616 50.9655C181.719 50.6887 181.823 50.5157 182.375 50.5157C185.098 50.3773 186.995 48.9934 187.443 47.7825C187.96 46.3986 187.167 45.2223 184.099 45.672C182.478 45.9142 180.685 47.1251 179.478 48.855C179.203 49.2702 178.892 49.4086 178.513 49.374C177.548 49.2356 176.651 49.028 175.962 48.6128C175.755 48.4745 175.651 48.4053 175.617 47.9901C175.582 47.4019 175.237 47.1251 174.203 47.0213C172.755 46.8483 172.307 47.4019 173.41 48.4052C173.755 48.7166 173.824 49.028 173.72 49.374C173.134 51.3807 169.962 54.5291 168.755 53.4566C167.997 52.7646 169.135 49.9968 170.376 47.7825C170.548 47.4711 170.928 47.0559 171.548 46.8138C174.927 45.5682 178.892 43.2156 180.72 41.1397C182.513 39.0984 182.547 37.4723 180.547 37.4377C177.065 37.3685 172.858 40.4131 170.204 43.4232C169.445 44.2881 168.686 45.3952 167.928 46.5024C167.652 46.9175 167.342 47.1251 166.928 47.2635C165.066 47.8171 163.377 47.8517 162.273 47.5749C161.998 47.5057 161.825 47.3673 161.687 46.9522C161.446 46.1218 160.929 45.4298 159.963 45.2914C157.791 44.9455 157.55 46.4332 160.239 48.0247C160.549 48.1977 160.756 48.3361 160.791 48.7166C160.929 50.3427 159.274 53.249 157.584 53.2836C155.964 53.2836 156.24 50.8271 158.584 48.8204C158.688 48.7512 158.86 48.5091 158.55 48.3707C156.377 47.2635 153.998 49.4432 153.516 52.038C153.412 52.6262 153.24 52.8684 152.93 53.1106C151.826 53.9755 149.792 54.8059 146.31 54.9097C142.31 55.0481 138.966 51.5191 138.242 48.9934C138 48.1631 138.207 48.0939 139.104 48.2323C144.793 49.0626 154.447 48.3707 156.446 41.6933C158.619 34.4277 150.723 32.4902 144.31 34.7391C131.966 39.0292 122.381 50.8963 119.45 56.259C116.83 61.0681 118.692 63.9397 121.381 64.5971C118.485 56.4666 136.173 39.8942 144.206 36.8495C150.551 34.4277 153.929 36.9879 153.033 41.0359C151.654 47.3673 140.448 48.0593 136.414 46.191C134.897 45.499 133.552 45.2222 134.483 48.0247C136.104 52.8684 140.207 56.5704 145.999 56.2936C149.447 56.1552 151.93 55.0827 153.309 54.2523C153.585 54.0793 153.688 54.1139 153.895 54.3215C156.136 57.0547 161.618 53.3182 161.791 48.9242C161.791 48.5782 161.963 48.5436 162.273 48.5782C163.721 48.7512 165.17 48.6128 166.273 48.4052C166.687 48.3361 166.894 48.3361 166.652 48.8204C164.239 53.5949 165.48 55.6708 168.411 55.1865C171.548 54.6675 173.824 51.8305 174.755 49.8238C174.893 49.5124 174.996 49.374 175.479 49.547C176.41 49.8584 177.41 50.066 178.134 50.2735C178.651 50.4119 178.685 50.5503 178.547 51.0001C177.479 54.8751 179.72 55.7746 183.133 55.0135C186.443 54.2869 191.167 50.4119 194.132 46.8138C194.546 46.3294 195.373 45.9834 195.58 46.71C195.856 47.7825 195.339 48.6474 194.615 49.6854C193.649 51.0347 190.891 53.8371 190.236 55.9822C189.029 59.9264 192.201 61.7601 193.822 61.9331C190.891 57.2969 195.683 53.0414 197.235 51.1385C198.752 49.201 198.718 48.2323 197.235 46.6408C195.994 45.2568 195.615 45.1531 198.097 41.8663C199.407 39.998 198.304 39.6174 196.58 39.998ZM182.65 49.028C183.857 47.1597 186.167 45.9834 186.478 47.0213C186.719 47.7479 184.719 49.3394 182.926 49.4778C182.719 49.5124 182.375 49.5124 182.65 49.028ZM172.238 44.8763C173.824 42.8696 176.582 40.4823 178.41 39.4098C180.099 38.4064 181.133 38.7178 179.72 40.3785C177.996 42.3852 174.375 44.3919 172.514 45.2568C172.169 45.4298 171.927 45.2915 172.238 44.8763Z" fill="black"/>
    <path d="M232.3 40.3089C230.059 37.5411 222.163 39.1672 217.819 39.5132C213.681 39.8592 208.957 40.5165 206.509 37.9909C206.165 37.6449 205.889 37.7833 205.648 38.0601C205.199 38.5445 204.751 39.098 204.441 39.5132C204.096 39.963 204.096 40.2052 204.579 40.4819C205.199 40.8279 206.406 41.3469 208.406 41.5199C208.889 41.5545 209.199 41.6583 209.44 42.108C209.716 42.6616 209.578 42.9038 209.302 43.1806C206.475 45.9138 200.338 55.2898 202.51 56.0164C205.648 57.0543 211.716 51.7954 211.44 45.637C211.405 45.0834 211.405 44.8413 211.785 44.3223C211.957 44.0801 212.164 43.9071 212.336 43.7341C213.819 42.1772 213.026 42.3502 211.337 42.4194C210.681 42.454 210.716 42.281 210.509 41.9696C210.371 41.7621 210.268 41.5891 210.888 41.5545C213.647 41.3815 223.68 40.2397 228.369 40.6895C231.576 41.0009 232.127 43.492 230.059 45.6024C229.852 45.81 229.955 45.8792 230.197 45.81C232.093 45.2218 234.093 42.5232 232.3 40.3089ZM210.406 46.6058C210.268 48.5087 209.199 51.1727 207.544 52.695C206.682 53.4908 205.51 53.9059 206.337 52.003C206.889 50.7921 208.406 48.4049 209.992 46.4328C210.406 45.9484 210.44 46.3636 210.406 46.6058Z" fill="black"/>
    <path fill-rule="evenodd" clip-rule="evenodd" d="M123.505 10.7312C122.901 10.6289 121.944 10.8079 120.962 11.1404C119.98 11.4729 119.602 11.0381 119.476 10.015C119.426 9.60574 119.577 9.2988 120.257 9.2988C120.685 9.2988 121.163 9.2988 121.541 9.11975C122.397 8.73608 122.246 7.892 121.44 8.09662C119.098 8.68492 117.637 6.92003 118.418 6.61309C118.771 6.4852 119.451 6.35731 119.803 6.22942C120.559 5.92248 120.156 5.12955 119.551 5.3086C118.796 5.5388 115.472 5.66669 114.288 4.61799C113.709 4.08085 113.029 4.95051 113.608 5.46207C114.036 5.84574 114.766 6.15268 115.346 6.35731C116.806 6.92003 116.832 7.68737 117.915 8.42914C118.997 9.14533 118.141 9.96383 118.544 11.6008C118.695 12.1891 118.67 12.5728 118.343 13.6471C118.141 14.3121 118.771 14.5935 119.249 14.0819C120.433 12.8542 121.642 11.9589 123.682 11.6264C124.185 11.5753 124.311 10.8591 123.505 10.7312V10.7312ZM119.602 28.0732C118.796 27.843 118.796 27.4849 119.4 27.1524C121.264 26.1037 123.103 25.2852 124.891 24.8504C125.344 24.748 125.596 24.6969 126.276 25.1573C126.981 25.6177 127.585 26.206 127.283 26.7943C126.805 27.7918 122.977 29.0963 119.602 28.0732ZM116.051 26.7176C112.752 25.5921 112.349 24.5178 113.407 24.1086C114.036 23.8784 113.986 23.1366 113.129 23.3412C112.525 23.4947 109.755 24.4411 109.176 23.4691C108.395 22.1391 109.755 21.1415 109.352 20.1695C109.075 19.5557 109.83 19.3766 109.704 19.1464C109.553 18.8906 109.226 18.7627 108.773 18.7372C108.445 18.7116 108.37 17.5094 109.604 17.2792C110.107 17.1769 110.258 16.4863 109.604 16.3584C107.967 16.1026 106.959 17.049 106.607 16.0259C106.456 15.6166 107.161 13.6727 107.941 12.7007C108.596 11.8822 109.478 11.4474 108.496 10.0661C107.866 9.14533 108.647 8.01989 108.898 7.15023C109.125 6.35731 109.377 5.38533 110.51 4.41336C111.09 3.9018 110.636 3.46697 109.427 3.13445C108.395 2.85309 107.816 1.98343 108.697 1.9067C109.125 1.88112 110.208 1.80439 111.039 1.59976C114.968 0.576633 122.7 -0.0628226 126.931 5.41091C128.618 7.61064 128.643 10.4242 127.56 14.4144C127.258 15.5143 126.049 17.9954 125.445 20.2463C125.193 21.2438 124.941 22.1646 124.311 20.2974C123.757 18.5837 124.236 18.3535 124.966 16.384C125.394 15.2585 124.563 15.1306 124.261 15.9491C123.757 17.2025 122.372 18.4558 120.836 18.6604C120.383 18.7116 120.181 19.4022 120.786 19.5301C121.591 19.7091 122.221 18.9162 123.002 20.1951C124.236 22.267 125.092 23.111 123.153 24.0063C121.239 24.9015 119.854 25.5154 117.537 26.6664C117.285 26.7687 116.731 26.9478 116.051 26.7176L116.051 26.7176ZM128.24 24.9782C129.65 25.7967 131.791 23.8016 133 26.8455C130.154 25.6177 126.351 31.0403 118.594 28.8661C117.587 28.5848 116.882 28.8661 116.101 29.3521C112.349 31.6286 111.77 35.1839 112.349 37C108.571 35.7211 109.352 31.9867 114.515 28.4057C115.144 27.9709 115.547 27.6384 114.716 27.4082C112.172 26.692 111.669 25.5665 109.427 25.5665C107.841 25.5665 107.211 24.0318 107.69 22.1135C107.79 21.6787 107.816 21.3717 107.589 20.7834C107.337 20.144 107.085 19.2487 107.085 18.2768C107.085 17.8675 107.085 17.5606 106.682 17.5094C106.027 17.4071 105.272 17.5094 105.045 16.4607C104.768 15.3353 105.826 13.3657 106.506 12.3682C107.06 11.5497 107.01 10.7312 106.884 10.2708C106.657 9.37553 106.758 8.86397 107.211 8.1222C107.866 7.04792 107.74 6.10152 107.715 5.46207C107.715 4.87377 108.168 4.20874 107.664 3.64602C107.06 2.98098 106.531 1.77881 106.405 1.29282C106.304 0.832414 106.758 0.755679 107.035 0.832414C107.539 0.960305 108.823 0.678945 110.384 0.499898C115.195 -0.0628224 123.581 -1.265 128.064 4.54125C129.928 6.94561 130.305 11.8566 128.568 14.8237C128.19 15.8468 127.082 18.7372 126.603 21.0904C126.099 23.2389 127.535 24.569 128.24 24.9782V24.9782Z" fill="#1D1D1B"/>
</svg>
