<svg xmlns="http://www.w3.org/2000/svg" width="282" height="47" viewBox="0 0 282 47" fill="none">
    <path d="M96.4893 16.4957C95.2413 15.0442 95.0333 14.5604 96.2813 12.7702C97.9453 10.3995 99.0685 8.22223 97.1133 8.31899C94.451 8.41576 93.2445 10.3511 93.3277 13.5443C93.3277 13.8346 93.4941 14.7055 93.0365 15.4313C89.5421 20.6566 83.7598 28.156 81.3469 26.7045C79.9325 25.882 81.6798 21.1405 83.5934 18.4794C84.5502 17.1247 84.4253 16.7376 82.7197 16.8344C80.8893 16.9312 79.891 16.8344 78.643 18.7697C78.3518 19.2052 78.227 19.1084 77.8942 18.8181C76.147 17.415 71.4462 17.2698 68.5342 22.3984C67.7854 23.7048 67.0782 24.624 66.0382 25.5917C64.291 27.1883 61.5038 28.0592 59.4654 28.3011C52.3934 29.0752 57.8014 16.2054 61.6702 6.09339C64.499 -1.30919 60.2558 -1.06727 56.2622 2.07762C51.9774 5.46442 41.5358 17.9956 38.3742 21.0921C36.211 23.2209 35.1294 22.3984 36.3358 18.8181C37.667 14.8023 43.3662 1.15834 40.2462 0.287446C31.635 -2.1317 5.59343 22.7371 0.476631 37.6874C-0.854568 41.558 0.559831 46.2512 5.26063 46.735C0.559831 33.091 25.5614 8.89959 32.2174 5.27088C37.1262 2.56144 36.627 5.99663 35.5038 9.09314C34.2558 12.5767 30.803 22.2049 29.6798 27.1883C28.2654 33.4781 31.1774 33.333 35.0046 28.9301C37.5422 26.0271 50.4382 10.3995 53.891 7.64165C56.7614 5.31927 57.8846 5.60957 56.3454 9.57697C55.3886 12.0445 50.2302 23.3661 51.8526 28.0592C53.3918 32.462 61.171 30.5267 65.9134 27.4302C66.8702 26.8013 67.1198 26.6561 67.3278 27.7205C68.243 32.2685 73.9006 29.0753 76.0222 26.6561C76.4798 26.1723 76.6046 26.1723 76.6878 26.6561C77.7693 33.7684 85.4238 29.1237 93.5773 17.0763C94.1597 16.2538 94.4925 16.3989 94.9085 17.1247C96.4061 19.689 92.9533 21.9146 89.3757 28.4947C87.4621 31.9782 87.1293 37.3487 92.8285 37.4939C91.5805 35.8005 90.9981 31.3493 96.8221 23.2693C99.4845 19.4955 98.2781 18.5762 96.4893 16.4957ZM72.4445 26.3174C70.9885 25.882 71.6542 22.8823 73.6926 20.9469C75.4397 19.3019 77.187 19.6406 77.187 21.6727C77.2286 23.8015 73.8173 26.7529 72.4445 26.3174Z" fill="black"/>
    <path d="M149.03 5.02872C146.409 2.12575 134.179 9.52833 129.935 23.4142C129.561 24.7206 129.145 24.9625 128.396 25.4463C124.444 28.0106 118.412 29.6556 118.329 25.3012C118.329 24.7206 118.454 24.4303 119.286 23.9948C123.695 21.7208 123.612 18.2373 122.364 17.318C120.409 15.8665 115.999 17.3664 114.585 23.8497C114.377 24.769 114.086 25.2044 113.545 25.6882C110.841 28.2525 104.809 29.8492 104.559 25.2044C104.435 23.1723 105.475 20.5596 107.014 19.7371C107.804 19.3501 108.844 19.5436 108.553 20.5596C107.305 20.9951 107.471 22.882 108.678 22.5917C110.175 22.2047 110.924 19.592 109.718 18.3824C108.47 17.1244 105.558 17.2696 103.353 19.3501C99.193 23.2691 99.3178 30.1878 105.599 30.0427C108.595 29.9943 111.423 28.7847 113.171 27.7203C114.335 26.9946 114.46 27.1881 114.835 27.8171C117.206 31.8328 123.487 29.5105 127.897 27.1397C128.646 26.7527 129.311 26.5591 129.395 27.3332C129.769 30.9136 131.932 33.0908 132.931 33.3327C132.015 30.9136 132.057 24.527 134.428 23.0272C142.831 17.947 151.859 8.12523 149.03 5.02872ZM118.579 22.3014C119.119 19.4952 120.825 17.6083 121.657 18.5759C122.447 19.4952 121.075 21.866 119.119 22.7369C118.703 22.9304 118.454 22.9304 118.579 22.3014ZM135.51 20.8015C134.761 21.3338 134.345 21.4789 134.886 20.3177C137.59 14.5601 141.916 9.47996 144.121 8.02847C146.617 6.38345 147.449 7.20595 147.116 8.65744C145.91 12.4797 139.046 18.2372 135.51 20.8015Z" fill="black"/>
    <path d="M237.18 8.80284C235.433 9.23829 234.601 11.2704 234.684 13.5444C234.684 14.3185 234.643 14.8991 234.31 15.4797C230.982 21.4792 223.952 27.7206 220.249 28.2044C218.793 28.3979 218.252 26.6561 219.126 24.1402C219.251 23.7532 219.376 23.5112 220.041 23.5112C223.328 23.3177 225.616 21.3824 226.156 19.689C226.78 17.7537 225.824 16.1087 222.121 16.7376C220.166 17.0763 218.003 18.7697 216.547 21.1889C216.214 21.7695 215.84 21.963 215.382 21.9146C214.217 21.7211 213.136 21.4308 212.304 20.8502C212.054 20.6567 211.929 20.5599 211.888 19.9793C211.846 19.1568 211.43 18.7697 210.182 18.6246C208.435 18.3826 207.894 19.1568 209.225 20.5599C209.641 20.9953 209.724 21.4308 209.6 21.9146C208.892 24.7208 205.065 29.1237 203.609 27.6238C202.694 26.6561 204.067 22.7855 205.564 19.689C205.772 19.2535 206.23 18.673 206.979 18.3343C211.056 16.5925 215.84 13.3024 218.044 10.3995C220.208 7.54488 220.249 5.27091 217.836 5.22252C213.635 5.12576 208.56 9.38345 205.356 13.5928C204.441 14.8023 203.526 16.3506 202.611 17.8988C202.278 18.4794 201.904 18.7697 201.404 18.9632C199.158 19.7374 197.12 19.7858 195.788 19.3987C195.456 19.3019 195.248 19.1084 195.081 18.5278C194.79 17.3666 194.166 16.3989 193.001 16.2054C190.38 15.7216 190.089 17.8021 193.334 20.0277C193.708 20.2696 193.958 20.4631 194 20.9953C194.166 23.2693 192.169 27.3335 190.131 27.3819C188.176 27.3819 188.508 23.9467 191.337 21.1405C191.462 21.0437 191.67 20.705 191.296 20.5115C188.675 18.9633 185.804 22.0114 185.222 25.6401C185.097 26.4626 184.889 26.8013 184.515 27.14C183.184 28.3495 180.729 29.5107 176.528 29.6559C171.702 29.8494 167.667 24.9143 166.793 21.3824C166.502 20.2212 166.752 20.1244 167.833 20.318C174.697 21.4792 186.345 20.5115 188.758 11.1736C191.379 1.0132 181.852 -1.69626 174.115 1.44863C159.222 7.44811 147.657 24.0435 144.121 31.5428C140.96 38.268 143.206 42.2838 146.451 43.2031C142.956 31.8331 164.297 8.6577 173.99 4.40001C181.644 1.0132 185.721 4.59353 184.64 10.2543C182.976 19.1084 169.456 20.0761 164.588 17.4634C162.758 16.4957 161.136 16.1087 162.259 20.0277C164.214 26.8013 169.164 31.9783 176.153 31.5912C180.313 31.3977 183.308 29.8978 184.972 28.7366C185.305 28.4947 185.43 28.5431 185.68 28.8334C188.384 32.6556 194.998 27.4302 195.206 21.2856C195.206 20.8018 195.414 20.7534 195.788 20.8018C197.536 21.0437 199.283 20.8502 200.614 20.5599C201.113 20.4631 201.363 20.4631 201.072 21.1405C198.16 27.8173 199.657 30.7203 203.193 30.0429C206.979 29.3172 209.724 25.3498 210.848 22.5436C211.014 22.1081 211.139 21.9146 211.721 22.1565C212.844 22.592 214.051 22.8823 214.924 23.1726C215.548 23.3661 215.59 23.5596 215.424 24.1886C214.134 29.6075 216.838 30.8654 220.956 29.801C224.95 28.785 230.649 23.3661 234.227 18.3343C234.726 17.6569 235.724 17.1731 235.974 18.1891C236.307 19.689 235.683 20.8986 234.809 22.35C233.644 24.237 230.316 28.156 229.526 31.1557C228.07 36.6714 231.897 39.2357 233.852 39.4776C230.316 32.9943 236.099 27.0432 237.971 24.3821C239.801 21.6727 239.76 20.318 237.971 18.0924C236.473 16.157 236.016 16.0119 239.011 11.4155C240.592 8.80285 239.26 8.27063 237.18 8.80284ZM220.374 21.4308C221.83 18.8181 224.617 17.1731 224.992 18.6246C225.283 19.6406 222.87 21.8662 220.707 22.0598C220.457 22.1081 220.041 22.1082 220.374 21.4308ZM207.811 15.6248C209.724 12.8186 213.052 9.48019 215.257 7.98032C217.296 6.57722 218.544 7.01269 216.838 9.33507C214.758 12.1413 210.39 14.9475 208.144 16.157C207.728 16.399 207.436 16.2054 207.811 15.6248Z" fill="black"/>
    <path d="M280.277 9.23741C277.573 5.36678 268.047 7.64078 262.805 8.12461C257.813 8.60844 252.114 9.5277 249.16 5.99575C248.744 5.51192 248.411 5.70546 248.12 6.09252C247.579 6.76988 247.039 7.54401 246.664 8.12461C246.248 8.75358 246.248 9.09226 246.831 9.47932C247.579 9.96315 249.035 10.6889 251.448 10.9308C252.031 10.9792 252.405 11.1243 252.696 11.7533C253.029 12.5274 252.863 12.8661 252.53 13.2532C249.119 17.0754 241.714 30.1872 244.335 31.2032C248.12 32.6547 255.442 25.3005 255.109 16.6884C255.067 15.9142 255.067 15.5756 255.525 14.8498C255.733 14.5111 255.983 14.2692 256.191 14.0273C257.979 11.8501 257.023 12.092 254.984 12.1888C254.194 12.2371 254.235 11.9952 253.986 11.5598C253.819 11.2695 253.695 11.0276 254.443 10.9792C257.771 10.7373 269.877 9.14063 275.535 9.76961C279.403 10.2051 280.069 13.6886 277.573 16.64C277.323 16.9303 277.448 17.027 277.739 16.9303C280.027 16.1078 282.44 12.3339 280.277 9.23741ZM253.861 18.0431C253.695 20.7042 252.405 24.4296 250.408 26.5585C249.368 27.6713 247.954 28.2519 248.952 25.5908C249.618 23.8974 251.448 20.559 253.362 17.8012C253.861 17.1238 253.903 17.7044 253.861 18.0431Z" fill="black"/>
    </svg>